
        <svg xmlns="http://www.w3.org/2000/svg" xmlns:xlink="http://www.w3.org/1999/xlink" version="1.1" width="3162.1506897771487" 
        height="665.7359834551087" viewBox="0 0 3162.1506897771487 665.7359834551087">
			
			<g transform="scale(8.107534488857445) translate(10, 10)">
				<defs id="SvgjsDefs9890"></defs><g id="SvgjsG9891" featureKey="UqkkrJ-0" transform="matrix(0.1350287982043016,0,0,0.1350287982043016,-7.083462798200753,-3.5107487533118418)" fill="#000000"><path xmlns="http://www.w3.org/2000/svg" d="M188,168.1c-6.6,0-6.6-10,0-10h41.7c6.6,0,6.6,10,0,10h-15.8v27.3h31V175c0-2.8,2.2-5,5-5h83.6c2.8,0,5,2.2,5,5v119.7h4.8  c2.7,0,5,2.2,5,5v49.2c0,2.8-2.2,5-5,5H168.8c-2.8,0-5-2.2-5-5v-49.2c0-2.8,2.2-5,5-5h6.3v-94.3c0-2.7,2.2-5,5-5h23.7v-27.3H188z   M213.8,205.4v89.3h31v-89.3H213.8z M203.8,294.7v-89.3h-18.7v89.3H203.8z M296,234.2c-1.2,2.5-4.2,3.5-6.7,2.2  c-2.5-1.2-3.5-4.3-2.2-6.7l6-11.8h-11.3c-3.6,0-6.3-3.9-4.3-7.6l9.5-18.7c1.2-2.5,4.3-3.5,6.7-2.2c2.5,1.2,3.5,4.2,2.2,6.7l-6,11.8  h11.3l0,0c3.7,0,6.2,3.9,4.5,7.3L296,234.2z M182,329.3c-6.6,0-6.6-10,0-10h13.1c6.6,0,6.6,10,0,10H182z M316.9,329.3  c-6.6,0-6.6-10,0-10H330c6.6,0,6.6,10,0,10H316.9z M283.1,329.3c-6.6,0-6.6-10,0-10h13.1c6.6,0,6.6,10,0,10H283.1z M249.4,329.3  c-6.6,0-6.6-10,0-10h13.1c6.6,0,6.6,10,0,10H249.4z M215.7,329.3c-6.6,0-6.6-10,0-10h13.1c6.6,0,6.6,10,0,10H215.7z M173.8,343.9  h164.4v-39.2c-54.8,0-109.6,0-164.4,0V343.9z M300.4,256.7h-17.7v37.9h17.7V256.7z M277.7,246.7h27.7c2.8,0,5,2.2,5,5v42.9h17.9V180  h-73.6v114.7h17.9v-42.9C272.7,249,275,246.7,277.7,246.7L277.7,246.7z M390.6,327.9c2.4,1.4,3.2,4.4,1.8,6.8  c-1.4,2.4-4.4,3.2-6.8,1.8L360.3,322c-5.7-3.3-0.7-11.9,5-8.6L390.6,327.9z M160.3,195c2.4,1.4,3.2,4.4,1.8,6.8  c-1.4,2.4-4.4,3.2-6.8,1.8l-33.9-19.6c-5.7-3.3-0.7-11.9,5-8.6L160.3,195z M385.6,175.4c5.7-3.3,10.7,5.4,5,8.6l-33.9,19.6  c-5.7,3.3-10.7-5.4-5-8.6L385.6,175.4z M147.4,312.9c5.7-3.3,10.7,5.4,5,8.6l-26,15c-5.7,3.3-10.7-5.4-5-8.6L147.4,312.9z   M251,103.5c0-6.6,10-6.6,10,0v39.2c0,6.6-10,6.6-10,0V103.5z M251,369.3c0-6.6,10-6.6,10,0v39.2c0,6.6-10,6.6-10,0V369.3z   M56.8,141c8.9-15.5,28.7-20.8,44.1-11.8c15.5,9,20.8,28.7,11.8,44.2c-9,15.5-28.7,20.8-44.1,11.8C53.2,176.2,47.9,156.5,56.8,141  L56.8,141z M79,135.6c-19.3,5.2-22.5,31.1-5.4,41c17.1,9.9,37.9-5.9,32.8-25.1C103.2,139.4,91,132.4,79,135.6L79,135.6z M56.8,371  c-8.9-15.5-3.7-35.2,11.8-44.2c15.5-8.9,35.2-3.6,44.1,11.8c8.9,15.5,3.6,35.2-11.8,44.1C85.5,391.8,65.8,386.5,56.8,371L56.8,371z   M63.2,349.1c-5.2,19.3,15.6,35,32.8,25.1c17.1-9.9,13.9-35.8-5.4-41C78.7,330.1,66.4,337.1,63.2,349.1L63.2,349.1z M256,486  c-17.9,0-32.3-14.5-32.3-32.3c0-17.9,14.5-32.3,32.3-32.3s32.3,14.5,32.3,32.3C288.3,471.5,273.9,486,256,486L256,486z M240.2,469.5  c14,14,38.1,4,38.1-15.8s-24.1-29.8-38.1-15.8C231.5,446.6,231.5,460.7,240.2,469.5L240.2,469.5z M455.2,371  c-8.9,15.5-28.7,20.8-44.1,11.8c-15.5-8.9-20.8-28.7-11.8-44.1c9-15.5,28.7-20.8,44.2-11.8C458.8,335.8,464.1,355.5,455.2,371  L455.2,371z M433,376.4c19.3-5.2,22.5-31.1,5.4-40.9c-17.1-9.9-38,5.9-32.8,25.1C408.8,372.6,421,379.6,433,376.4L433,376.4z   M455.2,141c9,15.5,3.7,35.2-11.8,44.1c-15.5,9-35.2,3.7-44.2-11.8c-8.9-15.5-3.6-35.2,11.8-44.2C426.5,120.2,446.2,125.5,455.2,141  L455.2,141z M448.7,163c5.2-19.3-15.6-35-32.8-25.1c-17.1,9.9-13.9,35.8,5.4,40.9C433.3,182,445.5,174.9,448.7,163L448.7,163z   M256,26c17.9,0,32.3,14.5,32.3,32.3c0,17.9-14.5,32.3-32.3,32.3s-32.3-14.5-32.3-32.3C223.6,40.5,238.1,26,256,26L256,26z   M271.8,42.6c-14-14-38.1-4.1-38.1,15.8s24.1,29.8,38.1,15.8C280.5,65.4,280.5,51.3,271.8,42.6L271.8,42.6z"></path></g><g id="SvgjsG9892" featureKey="0kuQ8p-0" transform="matrix(3.11143407466785,0,0,3.11143407466785,73.50651010116616,-8.739515677788404)" fill="#000000"><path d="M6.3 5.380000000000001 c1.7467 0 3.1366 0.40002 4.17 1.2 s1.55 1.9333 1.55 3.4 l-3.04 0 c-0.04 -0.72 -0.28334 -1.26 -0.73 -1.62 s-1.1367 -0.54 -2.07 -0.54 c-0.65334 0 -1.18 0.14334 -1.58 0.43 s-0.6 0.68332 -0.6 1.19 c0 0.41334 0.12334 0.71334 0.37 0.9 s0.59666 0.35332 1.05 0.49998 s1.2467 0.36 2.38 0.64 c1.1867 0.29334 2.1 0.61334 2.74 0.96 s1.1267 0.79 1.46 1.33 s0.5 1.2033 0.5 1.99 c0 0.90666 -0.24 1.7133 -0.72 2.42 s-1.18 1.2433 -2.1 1.61 s-1.96 0.55 -3.12 0.55 c-1.7733 0 -3.23 -0.44334 -4.37 -1.33 s-1.71 -2.1034 -1.71 -3.65 l0 -0.1 l3.04 0 c0 0.84 0.28666 1.49 0.86 1.95 s1.3333 0.69 2.28 0.69 c0.84 0 1.5167 -0.15 2.03 -0.45 s0.77 -0.74334 0.77 -1.33 c0 -0.38666 -0.14 -0.71332 -0.42 -0.97998 s-0.65334 -0.48332 -1.12 -0.64998 s-1.2533 -0.37666 -2.36 -0.63 c-1.28 -0.32 -2.2134 -0.66 -2.8 -1.02 s-1.0333 -0.79666 -1.34 -1.31 s-0.46 -1.13 -0.46 -1.85 c0 -0.89334 0.25666 -1.6733 0.77 -2.34 s1.1833 -1.16 2.01 -1.48 s1.68 -0.48 2.56 -0.48 z M17.44 5.720000000000001 l-0.000019531 8.94 c0 1.0533 0.23666 1.8233 0.71 2.31 s1.2167 0.73 2.23 0.73 c1.0933 0 1.86 -0.24334 2.3 -0.73 s0.66 -1.2567 0.66 -2.31 l0 -8.94 l3.14 0 l0 8.94 c0 1.7867 -0.51 3.18 -1.53 4.18 s-2.5434 1.5 -4.57 1.5 c-2.0666 0 -3.5966 -0.5 -4.59 -1.5 s-1.49 -2.3934 -1.49 -4.18 l0 -8.94 l3.14 0 z M35.3 5.720000000000001 c2.0266 0 3.62 0.62666 4.78 1.88 s1.74 2.98 1.74 5.18 c0 2.28 -0.58334 4.0534 -1.75 5.32 s-2.73 1.9 -4.69 1.9 l-6.2 0 l0 -14.28 l6.12 0 z M35.1 17.36 c1.1333 0 2.0134 -0.37334 2.64 -1.12 s0.94 -1.8067 0.94 -3.18 c0 -1.5733 -0.33666 -2.75 -1.01 -3.53 s-1.71 -1.17 -3.11 -1.17 l-2.24 0 l0 9 l2.78 0 z M50.400000000000006 5.380000000000001 c2.1066 0 3.8034 0.7 5.09 2.1 s1.93 3.2134 1.93 5.44 c0 2.1734 -0.64666 3.9534 -1.94 5.34 s-2.9866 2.08 -5.08 2.08 c-2.1066 0 -3.8034 -0.69334 -5.09 -2.08 s-1.93 -3.1666 -1.93 -5.34 c0 -2.2134 0.64666 -4.0234 1.94 -5.43 s2.9866 -2.11 5.08 -2.11 z M46.52 12.92 c0 1.44 0.33998 2.5966 1.02 3.47 s1.6333 1.31 2.86 1.31 c1.2 0 2.1466 -0.43 2.84 -1.29 s1.04 -2.0234 1.04 -3.49 c0 -1.5333 -0.34334 -2.7334 -1.03 -3.6 s-1.6433 -1.3 -2.87 -1.3 c-1.2 0 -2.1434 0.43334 -2.83 1.3 s-1.03 2.0666 -1.03 3.6 z M71.52000000000001 5.380000000000001 c1.6667 0 3.0666 0.47 4.2 1.41 s1.7867 2.1834 1.96 3.73 l-3.04 0 c-0.10666 -0.70666 -0.46 -1.3 -1.06 -1.78 s-1.2867 -0.72 -2.06 -0.72 c-1.2267 0 -2.18 0.44 -2.86 1.32 s-1.02 2.0734 -1.02 3.58 c0 1.4667 0.34334 2.63 1.03 3.49 s1.6367 1.29 2.85 1.29 c0.90666 0 1.64 -0.27666 2.2 -0.83 s0.90666 -1.3433 1.04 -2.37 l3.04 0 c-0.16 1.8133 -0.81 3.24 -1.95 4.28 s-2.5834 1.56 -4.33 1.56 c-2.0934 0 -3.7866 -0.69 -5.08 -2.07 s-1.94 -3.1634 -1.94 -5.35 c0 -2.2134 0.64 -4.0234 1.92 -5.43 s2.98 -2.11 5.1 -2.11 z M90.52000000000001 5.720000000000001 l0 2.64 l-4.28 0 l0 11.64 l-3.14 0 l0 -11.64 l-4.28 0 l0 -2.64 l11.7 0 z M95.3 5.720000000000001 l0 14.28 l-3.14 0 l0 -14.28 l3.14 0 z"></path></g>
			</g>
		</svg>
	