<?xml version="1.0" encoding="UTF-8"?>
<svg xmlns="http://www.w3.org/2000/svg" viewBox="0 0 1000 600">
  <!-- US Outline - Simplified path for testing -->
  <g id="us-outline">
    <!-- Contiguous US outline -->
    <path id="contiguous-us" d="M 850 120 L 950 140 L 970 200 L 950 280 L 900 320 L 850 340 L 800 380 L 750 400 L 700 420 L 650 440 L 600 450 L 550 460 L 500 470 L 450 475 L 400 480 L 350 485 L 300 490 L 250 495 L 200 500 L 150 490 L 100 480 L 80 460 L 70 440 L 60 420 L 50 400 L 40 380 L 30 360 L 25 340 L 20 320 L 15 300 L 10 280 L 8 260 L 6 240 L 5 220 L 7 200 L 10 180 L 15 160 L 20 140 L 30 120 L 50 100 L 70 90 L 100 80 L 130 75 L 160 70 L 200 65 L 250 60 L 300 58 L 350 56 L 400 55 L 450 54 L 500 53 L 550 52 L 600 51 L 650 50 L 700 52 L 750 55 L 800 60 L 850 80 L 880 100 Z" 
          fill="none" stroke="#000" stroke-width="2"/>
    
    <!-- Alaska (simplified) -->
    <path id="alaska" d="M 80 350 L 120 360 L 140 380 L 150 400 L 140 420 L 120 430 L 100 435 L 80 430 L 60 420 L 50 400 L 55 380 L 70 360 Z" 
          fill="none" stroke="#000" stroke-width="1"/>
    
    <!-- Hawaii (simplified dots) -->
    <g id="hawaii">
      <circle cx="200" cy="380" r="3" fill="none" stroke="#000" stroke-width="1"/>
      <circle cx="210" cy="385" r="2" fill="none" stroke="#000" stroke-width="1"/>
      <circle cx="220" cy="390" r="2" fill="none" stroke="#000" stroke-width="1"/>
    </g>
  </g>
  
  <!-- Major state borders (simplified) -->
  <g id="state-borders" stroke="#666" stroke-width="0.5" fill="none">
    <!-- Vertical lines for major state divisions -->
    <line x1="150" y1="120" x2="150" y2="450"/>
    <line x1="250" y1="100" x2="250" y2="480"/>
    <line x1="350" y1="80" x2="350" y2="460"/>
    <line x1="450" y1="70" x2="450" y2="440"/>
    <line x1="550" y1="65" x2="550" y2="420"/>
    <line x1="650" y1="60" x2="650" y2="400"/>
    <line x1="750" y1="70" x2="750" y2="380"/>
    <line x1="850" y1="90" x2="850" y2="360"/>
    
    <!-- Horizontal lines for major state divisions -->
    <line x1="50" y1="200" x2="900" y2="180"/>
    <line x1="80" y1="300" x2="850" y2="280"/>
    <line x1="100" y1="400" x2="800" y2="360"/>
  </g>
</svg>
